<svg xmlns="http://www.w3.org/2000/svg" version="1.1" xmlns:xlink="http://www.w3.org/1999/xlink" xmlns:svgjs="http://svgjs.com/svgjs" width="1440" height="560" preserveAspectRatio="none" viewBox="0 0 1440 560"><g mask="url(&quot;#SvgjsMask1003&quot;)" fill="none"><rect width="1440" height="560" x="0" y="0" fill="rgba(99, 175, 255, 1)"></rect><path d="M 0,77 C 57.6,108.6 172.8,243.6 288,235 C 403.2,226.4 460.8,28 576,34 C 691.2,40 748.8,256.8 864,265 C 979.2,273.2 1036.8,95 1152,75 C 1267.2,55 1382.4,147 1440,165L1440 560L0 560z" fill="rgba(231, 43, 235, 1)"></path><path d="M 0,459 C 96,446 288,374.4 480,394 C 672,413.6 768,569.4 960,557 C 1152,544.6 1344,377 1440,332L1440 560L0 560z" fill="rgba(245, 186, 232, 1)"></path></g><defs><mask id="SvgjsMask1003"><rect width="1440" height="560" fill="#ffffff"></rect></mask></defs></svg>